<mxfile host="app.diagrams.net" agent="Mozilla/5.0 (Windows NT 10.0; Win64; x64) AppleWebKit/537.36 (KHTML, like Gecko) Chrome/129.0.0.0 Safari/537.36" version="24.7.16">
  <diagram name="Page-1" id="83G6lprgVwXkZBsUDIDj">
    <mxGraphModel dx="1434" dy="780" grid="1" gridSize="10" guides="1" tooltips="1" connect="1" arrows="1" fold="1" page="1" pageScale="1" pageWidth="827" pageHeight="1169" math="0" shadow="0">
      <root>
        <mxCell id="0" />
        <mxCell id="1" parent="0" />
        <mxCell id="TRsXyA7eFiGpxDR2fm5W-1" value="Event request window&amp;nbsp;" style="shape=umlLifeline;perimeter=lifelinePerimeter;whiteSpace=wrap;html=1;container=1;dropTarget=0;collapsible=0;recursiveResize=0;outlineConnect=0;portConstraint=eastwest;newEdgeStyle={&quot;curved&quot;:0,&quot;rounded&quot;:0};" vertex="1" parent="1">
          <mxGeometry y="140" width="100" height="370" as="geometry" />
        </mxCell>
        <mxCell id="TRsXyA7eFiGpxDR2fm5W-7" value="" style="html=1;points=[[0,0,0,0,5],[0,1,0,0,-5],[1,0,0,0,5],[1,1,0,0,-5]];perimeter=orthogonalPerimeter;outlineConnect=0;targetShapes=umlLifeline;portConstraint=eastwest;newEdgeStyle={&quot;curved&quot;:0,&quot;rounded&quot;:0};" vertex="1" parent="TRsXyA7eFiGpxDR2fm5W-1">
          <mxGeometry x="45" y="80" width="10" height="290" as="geometry" />
        </mxCell>
        <mxCell id="TRsXyA7eFiGpxDR2fm5W-2" value="Event request" style="shape=umlLifeline;perimeter=lifelinePerimeter;whiteSpace=wrap;html=1;container=1;dropTarget=0;collapsible=0;recursiveResize=0;outlineConnect=0;portConstraint=eastwest;newEdgeStyle={&quot;curved&quot;:0,&quot;rounded&quot;:0};" vertex="1" parent="1">
          <mxGeometry x="234" y="140" width="100" height="390" as="geometry" />
        </mxCell>
        <mxCell id="TRsXyA7eFiGpxDR2fm5W-5" value="" style="html=1;points=[[0,0,0,0,5],[0,1,0,0,-5],[1,0,0,0,5],[1,1,0,0,-5]];perimeter=orthogonalPerimeter;outlineConnect=0;targetShapes=umlLifeline;portConstraint=eastwest;newEdgeStyle={&quot;curved&quot;:0,&quot;rounded&quot;:0};" vertex="1" parent="TRsXyA7eFiGpxDR2fm5W-2">
          <mxGeometry x="46" y="130" width="10" height="40" as="geometry" />
        </mxCell>
        <mxCell id="TRsXyA7eFiGpxDR2fm5W-9" value="" style="html=1;points=[[0,0,0,0,5],[0,1,0,0,-5],[1,0,0,0,5],[1,1,0,0,-5]];perimeter=orthogonalPerimeter;outlineConnect=0;targetShapes=umlLifeline;portConstraint=eastwest;newEdgeStyle={&quot;curved&quot;:0,&quot;rounded&quot;:0};" vertex="1" parent="TRsXyA7eFiGpxDR2fm5W-2">
          <mxGeometry x="46" y="60" width="10" height="330" as="geometry" />
        </mxCell>
        <mxCell id="TRsXyA7eFiGpxDR2fm5W-10" value="" style="html=1;points=[[0,0,0,0,5],[0,1,0,0,-5],[1,0,0,0,5],[1,1,0,0,-5]];perimeter=orthogonalPerimeter;outlineConnect=0;targetShapes=umlLifeline;portConstraint=eastwest;newEdgeStyle={&quot;curved&quot;:0,&quot;rounded&quot;:0};" vertex="1" parent="TRsXyA7eFiGpxDR2fm5W-2">
          <mxGeometry x="51" y="130" width="10" height="40" as="geometry" />
        </mxCell>
        <mxCell id="TRsXyA7eFiGpxDR2fm5W-11" value="idRequest=authenticate()" style="html=1;align=left;spacingLeft=2;endArrow=block;rounded=0;edgeStyle=orthogonalEdgeStyle;curved=0;rounded=0;" edge="1" target="TRsXyA7eFiGpxDR2fm5W-10" parent="TRsXyA7eFiGpxDR2fm5W-2">
          <mxGeometry relative="1" as="geometry">
            <mxPoint x="56" y="110" as="sourcePoint" />
            <Array as="points">
              <mxPoint x="86" y="140" />
            </Array>
          </mxGeometry>
        </mxCell>
        <mxCell id="TRsXyA7eFiGpxDR2fm5W-8" value="" style="html=1;points=[[0,0,0,0,5],[0,1,0,0,-5],[1,0,0,0,5],[1,1,0,0,-5]];perimeter=orthogonalPerimeter;outlineConnect=0;targetShapes=umlLifeline;portConstraint=eastwest;newEdgeStyle={&quot;curved&quot;:0,&quot;rounded&quot;:0};" vertex="1" parent="TRsXyA7eFiGpxDR2fm5W-2">
          <mxGeometry x="51" y="240" width="10" height="140" as="geometry" />
        </mxCell>
        <mxCell id="TRsXyA7eFiGpxDR2fm5W-17" value="" style="html=1;points=[[0,0,0,0,5],[0,1,0,0,-5],[1,0,0,0,5],[1,1,0,0,-5]];perimeter=orthogonalPerimeter;outlineConnect=0;targetShapes=umlLifeline;portConstraint=eastwest;newEdgeStyle={&quot;curved&quot;:0,&quot;rounded&quot;:0};" vertex="1" parent="TRsXyA7eFiGpxDR2fm5W-2">
          <mxGeometry x="56" y="190" width="10" height="40" as="geometry" />
        </mxCell>
        <mxCell id="TRsXyA7eFiGpxDR2fm5W-18" value="sendRequest" style="html=1;align=left;spacingLeft=2;endArrow=block;rounded=0;edgeStyle=orthogonalEdgeStyle;curved=0;rounded=0;exitX=1;exitY=0.364;exitDx=0;exitDy=0;exitPerimeter=0;" edge="1" target="TRsXyA7eFiGpxDR2fm5W-17" parent="TRsXyA7eFiGpxDR2fm5W-2" source="TRsXyA7eFiGpxDR2fm5W-9">
          <mxGeometry relative="1" as="geometry">
            <mxPoint x="61" y="170" as="sourcePoint" />
            <Array as="points">
              <mxPoint x="91" y="180" />
              <mxPoint x="91" y="200" />
            </Array>
          </mxGeometry>
        </mxCell>
        <mxCell id="TRsXyA7eFiGpxDR2fm5W-3" value="Calendar" style="shape=umlLifeline;perimeter=lifelinePerimeter;whiteSpace=wrap;html=1;container=1;dropTarget=0;collapsible=0;recursiveResize=0;outlineConnect=0;portConstraint=eastwest;newEdgeStyle={&quot;curved&quot;:0,&quot;rounded&quot;:0};" vertex="1" parent="1">
          <mxGeometry x="490" y="140" width="100" height="380" as="geometry" />
        </mxCell>
        <mxCell id="TRsXyA7eFiGpxDR2fm5W-12" value="" style="html=1;points=[[0,0,0,0,5],[0,1,0,0,-5],[1,0,0,0,5],[1,1,0,0,-5]];perimeter=orthogonalPerimeter;outlineConnect=0;targetShapes=umlLifeline;portConstraint=eastwest;newEdgeStyle={&quot;curved&quot;:0,&quot;rounded&quot;:0};" vertex="1" parent="TRsXyA7eFiGpxDR2fm5W-3">
          <mxGeometry x="45" y="240" width="10" height="40" as="geometry" />
        </mxCell>
        <mxCell id="TRsXyA7eFiGpxDR2fm5W-13" value="" style="html=1;points=[[0,0,0,0,5],[0,1,0,0,-5],[1,0,0,0,5],[1,1,0,0,-5]];perimeter=orthogonalPerimeter;outlineConnect=0;targetShapes=umlLifeline;portConstraint=eastwest;newEdgeStyle={&quot;curved&quot;:0,&quot;rounded&quot;:0};" vertex="1" parent="TRsXyA7eFiGpxDR2fm5W-3">
          <mxGeometry x="45" y="300" width="10" height="40" as="geometry" />
        </mxCell>
        <mxCell id="TRsXyA7eFiGpxDR2fm5W-4" value="renderForm()" style="html=1;verticalAlign=bottom;endArrow=block;curved=0;rounded=0;entryX=-0.4;entryY=0.124;entryDx=0;entryDy=0;entryPerimeter=0;" edge="1" parent="1" target="TRsXyA7eFiGpxDR2fm5W-9">
          <mxGeometry width="80" relative="1" as="geometry">
            <mxPoint x="57" y="240" as="sourcePoint" />
            <mxPoint x="270.5" y="240" as="targetPoint" />
          </mxGeometry>
        </mxCell>
        <mxCell id="TRsXyA7eFiGpxDR2fm5W-14" value="CheckDate()" style="html=1;verticalAlign=bottom;endArrow=block;curved=0;rounded=0;entryX=0;entryY=0;entryDx=0;entryDy=5;entryPerimeter=0;" edge="1" parent="1" source="TRsXyA7eFiGpxDR2fm5W-8" target="TRsXyA7eFiGpxDR2fm5W-12">
          <mxGeometry width="80" relative="1" as="geometry">
            <mxPoint x="300" y="370" as="sourcePoint" />
            <mxPoint x="380" y="370" as="targetPoint" />
          </mxGeometry>
        </mxCell>
        <mxCell id="TRsXyA7eFiGpxDR2fm5W-15" value="" style="html=1;verticalAlign=bottom;endArrow=block;curved=0;rounded=0;" edge="1" parent="1">
          <mxGeometry width="80" relative="1" as="geometry">
            <mxPoint x="296" y="440" as="sourcePoint" />
            <mxPoint x="535.5" y="440" as="targetPoint" />
          </mxGeometry>
        </mxCell>
        <mxCell id="TRsXyA7eFiGpxDR2fm5W-19" value="Add()" style="edgeLabel;html=1;align=center;verticalAlign=middle;resizable=0;points=[];" vertex="1" connectable="0" parent="TRsXyA7eFiGpxDR2fm5W-15">
          <mxGeometry x="0.0689" y="4" relative="1" as="geometry">
            <mxPoint x="-14" y="-6" as="offset" />
          </mxGeometry>
        </mxCell>
        <mxCell id="TRsXyA7eFiGpxDR2fm5W-16" value="Acknowledge" style="html=1;verticalAlign=bottom;endArrow=block;curved=0;rounded=0;exitX=0;exitY=1;exitDx=0;exitDy=-5;exitPerimeter=0;" edge="1" parent="1" source="TRsXyA7eFiGpxDR2fm5W-13" target="TRsXyA7eFiGpxDR2fm5W-8">
          <mxGeometry width="80" relative="1" as="geometry">
            <mxPoint x="410" y="570" as="sourcePoint" />
            <mxPoint x="490" y="570" as="targetPoint" />
          </mxGeometry>
        </mxCell>
        <mxCell id="TRsXyA7eFiGpxDR2fm5W-22" value="new" style="html=1;verticalAlign=bottom;endArrow=block;curved=0;rounded=0;" edge="1" parent="1">
          <mxGeometry width="80" relative="1" as="geometry">
            <mxPoint x="547" y="401" as="sourcePoint" />
            <mxPoint x="627" y="401" as="targetPoint" />
          </mxGeometry>
        </mxCell>
        <mxCell id="TRsXyA7eFiGpxDR2fm5W-24" value=":Object" style="shape=umlLifeline;perimeter=lifelinePerimeter;whiteSpace=wrap;html=1;container=1;dropTarget=0;collapsible=0;recursiveResize=0;outlineConnect=0;portConstraint=eastwest;newEdgeStyle={&quot;curved&quot;:0,&quot;rounded&quot;:0};" vertex="1" parent="1">
          <mxGeometry x="630" y="390" width="100" height="130" as="geometry" />
        </mxCell>
        <mxCell id="TRsXyA7eFiGpxDR2fm5W-25" value=":Object" style="shape=umlLifeline;perimeter=lifelinePerimeter;whiteSpace=wrap;html=1;container=1;dropTarget=0;collapsible=0;recursiveResize=0;outlineConnect=0;portConstraint=eastwest;newEdgeStyle={&quot;curved&quot;:0,&quot;rounded&quot;:0};" vertex="1" parent="1">
          <mxGeometry x="720" y="480" width="100" height="70" as="geometry" />
        </mxCell>
        <mxCell id="TRsXyA7eFiGpxDR2fm5W-26" value="new" style="html=1;verticalAlign=bottom;endArrow=block;curved=0;rounded=0;" edge="1" parent="1">
          <mxGeometry width="80" relative="1" as="geometry">
            <mxPoint x="290" y="500" as="sourcePoint" />
            <mxPoint x="720" y="500" as="targetPoint" />
          </mxGeometry>
        </mxCell>
      </root>
    </mxGraphModel>
  </diagram>
</mxfile>
